<?xml version="1.0" encoding="utf-8"?>
<!-- Generator: Adobe Illustrator 27.0.0, SVG Export Plug-In . SVG Version: 6.00 Build 0)  -->
<svg version="1.1" id="Layer_1" xmlns="http://www.w3.org/2000/svg" xmlns:xlink="http://www.w3.org/1999/xlink" x="0px" y="0px"
	 viewBox="0 0 1280 315.64" style="enable-background:new 0 0 1280 315.64;" xml:space="preserve">
<style type="text/css">
	.st0{fill:#EAEEF4;}
</style>
<g>
	<g>
		<path class="st0" d="M186,170.44v41.64c0,6.24,2.48,12.23,6.89,16.64l35.49,39.7c2.55,2.55,6.01,3.99,9.62,3.99h15.23
			c2.25,0,4.07-1.82,4.07-4.07v-23.41c0-2.25-1.82-4.07-4.07-4.07h-30.92c-2.25,0-4.07-1.82-4.07-4.07v-66.34h21.51
			c2.25,0,4.07-1.82,4.07-4.07v-17.1c0-2.25-1.82-4.07-4.07-4.07h-21.51V78.86c0-2.25,1.82-4.07,4.07-4.07h30.92
			c2.25,0,4.07-1.82,4.07-4.07V47.3c0-2.25-1.82-4.07-4.07-4.07h-15.23c-3.61,0-7.07,1.43-9.62,3.99l-35.49,39.7
			c-4.41,4.41-6.89,10.4-6.89,16.64v41.64h-68.53v-41.64c0-6.24-2.48-12.23-6.89-16.64l-35.49-39.7c-2.55-2.55-6.01-3.99-9.62-3.99
			H50.23c-2.25,0-4.07,1.82-4.07,4.07v23.41c0,2.25,1.82,4.07,4.07,4.07h30.92c2.25,0,4.07,1.82,4.07,4.07v66.34H63.71
			c-2.25,0-4.07,1.82-4.07,4.07v17.1c0,2.25,1.82,4.07,4.07,4.07h21.51v66.34c0,2.25-1.82,4.07-4.07,4.07H50.23
			c-2.25,0-4.07,1.82-4.07,4.07v23.41c0,2.25,1.82,4.07,4.07,4.07h15.23c3.61,0,7.07-1.43,9.62-3.99l35.49-39.7
			c4.41-4.41,6.89-10.4,6.89-16.64v-41.64H186z"/>
	</g>
	<g>
		<path class="st0" d="M461.68,212.41l-32.24-0.34v-41.64H360.9v41.64l-32.24,0.34V103.89l32.24-0.34v41.64h68.54v-41.64l32.24,0.34
			V212.41z"/>
		<path class="st0" d="M623.87,212.08H504.65V103.55h119.22v23.94h-87.3v18.51h80.91v22.66h-80.91v18.67h87.3V212.08z"/>
		<path class="st0" d="M767.81,212.08H666.87V103.55h32.24v83.31h68.7V212.08z"/>
		<path class="st0" d="M900.11,212.08H799.17V103.55h32.24v83.31h68.7V212.08z"/>
		<path class="st0" d="M1078.7,212.08h-34.79l-10.05-19.47h-68.46l-9.9,19.47h-34.47l58.89-108.52h39.58L1078.7,212.08z
			 M1022.21,169.94l-22.34-43.57h-0.8l-22.18,43.57H1022.21z"/>
		<path class="st0" d="M1233.84,179.2c0,26.97-7.82,34.15-60.96,34.15h-5.11c-61.6,0-67.19-5.43-67.19-32.88v-3.99h31.92v2.87
			c0,9.1,4.47,10.69,32.88,10.69h3.99c30.96,0,32.88-2.07,32.88-10.05v-0.64c0-8.62-2.23-10.21-34.95-10.21
			c-60.01,0-65.91-5.43-65.91-32.88v-0.8c0-26.97,8.62-33.2,57.93-33.2h6.54c59.53,0,64.8,7.82,64.8,32.08v3.35h-31.92v-1.76
			c0-7.82-2.07-10.69-27.93-10.69h-4.79c-30.64,0-33.03,1.28-33.03,10.21v0.64c0,7.82,2.07,8.78,37.66,8.78
			c55.38,0,63.2,4.63,63.2,33.51V179.2z"/>
	</g>
</g>
</svg>
